<svg width="312" height="128" viewBox="0 0 312 128" fill="none" xmlns="http://www.w3.org/2000/svg">
<g clip-path="url(#clip0_218_1609)">
<path d="M125.465 53.9737L129.001 51.7524C130.355 54.4161 132.551 55.7434 135.585 55.7434C137.218 55.7434 138.362 55.3848 139.028 54.6723C139.693 53.9598 140.023 53.1727 140.023 52.3205C140.023 51.7431 139.911 51.2448 139.684 50.8163C139.46 50.3926 139.069 49.9967 138.516 49.6335C137.962 49.2702 137.427 48.9675 136.915 48.73C136.399 48.4925 135.664 48.1945 134.701 47.8359C133.482 47.3795 132.477 46.9511 131.686 46.5506C130.895 46.1501 130.123 45.6425 129.373 45.0231C128.62 44.4084 128.061 43.6726 127.699 42.8204C127.336 41.9682 127.154 40.9856 127.154 39.8819C127.154 37.7723 127.936 36.0632 129.504 34.7593C131.072 33.4553 132.998 32.7987 135.282 32.7987C139.069 32.7987 141.903 34.233 143.787 37.0924L140.326 39.4674C139.297 37.8375 137.641 37.0179 135.357 37.0179C134.328 37.0179 133.472 37.2926 132.798 37.8375C132.118 38.387 131.783 39.0762 131.783 39.9098C131.783 40.2731 131.821 40.5944 131.891 40.8692C131.96 41.1439 132.091 41.3954 132.281 41.6329C132.472 41.8657 132.654 42.0706 132.835 42.2383C133.012 42.4059 133.319 42.5829 133.747 42.7645C134.175 42.9461 134.528 43.0952 134.808 43.2162C135.087 43.3327 135.543 43.5283 136.18 43.7984C136.818 44.0685 137.306 44.278 137.655 44.427C140.191 45.405 142.005 46.4668 143.098 47.617C144.187 48.7673 144.736 50.2948 144.736 52.1994C144.736 54.5093 143.95 56.3814 142.382 57.811C140.814 59.2407 138.539 59.9579 135.552 59.9579C133.119 59.9579 131.034 59.4223 129.304 58.3559C127.573 57.2894 126.293 55.8272 125.465 53.9691" fill="#FF2A01"/>
<path d="M151.189 40.5292H146.672V59.5154H151.189V40.5292Z" fill="#FF2A01"/>
<path d="M159.545 33.2551H155.028V59.5108H159.545V33.2551Z" fill="#FF2A01"/>
<path d="M169.776 59.5108L161.648 40.5292H166.315L171.679 53.4335L177.039 40.5292H181.705L173.577 59.5108H169.776Z" fill="#FF2A01"/>
<path d="M181.705 50.169V50.02C181.705 47.007 182.64 44.5854 184.511 42.7505C186.381 40.9157 188.754 39.9983 191.643 39.9983C194.532 39.9983 196.654 40.9157 198.399 42.7505C200.143 44.5854 201.013 46.8579 201.013 49.5683C201.013 50.1178 200.99 50.6487 200.939 51.147H186.186C186.26 52.6558 186.814 53.8573 187.842 54.7654C188.87 55.6688 190.224 56.1206 191.904 56.1206C193.862 56.1206 195.565 55.3941 197.022 53.9365L199.729 56.5723C197.598 58.8309 194.937 59.9625 191.75 59.9625C188.763 59.9625 186.344 59.073 184.488 57.2894C182.631 55.5058 181.701 53.1355 181.701 50.169M186.293 47.9849H196.417C196.417 46.8533 195.947 45.88 195.007 45.065C194.067 44.2501 192.941 43.8403 191.639 43.8403C190.233 43.8403 189.019 44.2407 187.986 45.0464C186.958 45.852 186.395 46.83 186.293 47.9849Z" fill="#FF2A01"/>
<path d="M147.867 33.3575C145.904 35.3227 146.951 37.6093 146.951 37.6093C146.951 37.6093 149.24 38.6571 151.199 36.6919C153.162 34.7267 152.58 31.9744 152.58 31.9744C152.58 31.9744 149.826 31.3923 147.867 33.3575Z" fill="#FF2A01"/>
<path d="M208.346 40.4872H203.87V59.4735H208.346V40.4872Z" fill="#FF2A01"/>
<path d="M212.789 40.4872C209.416 40.4872 208.351 43.3559 208.351 43.3559C208.351 43.3559 209.416 46.2246 212.789 46.2246C216.162 46.2246 218.028 43.3559 218.028 43.3559C218.028 43.3559 216.162 40.4872 212.789 40.4872Z" fill="#FF2A01"/>
<path d="M129.513 88.6258C126.815 86.0506 125.465 82.8187 125.465 78.9255C125.465 75.0323 126.815 71.7957 129.513 69.2065C132.212 66.6219 135.501 65.3273 139.39 65.3273C143.28 65.3273 146.504 66.6452 149.137 69.281L146.016 72.145C144.262 70.4359 142.052 69.5837 139.39 69.5837C136.729 69.5837 134.556 70.4732 132.788 72.2568C131.02 74.0404 130.136 76.2617 130.136 78.9255C130.136 81.5892 131.02 83.8013 132.788 85.5756C134.556 87.3452 136.757 88.23 139.39 88.23C141.875 88.23 143.969 87.4756 145.676 85.9714V81.1515H138.376V76.9696H150.119V87.5548C148.863 89.0869 147.304 90.293 145.434 91.1732C143.564 92.0533 141.554 92.4911 139.395 92.4911C135.506 92.4911 132.212 91.2058 129.518 88.6305" fill="#FF2A01"/>
<path d="M153.05 82.6929V82.5439C153.05 79.5309 153.985 77.1093 155.856 75.2745C157.726 73.4396 160.099 72.5222 162.988 72.5222C165.877 72.5222 167.999 73.4396 169.744 75.2745C171.488 77.1093 172.358 79.3819 172.358 82.0922C172.358 82.6417 172.33 83.1726 172.284 83.6709H157.531C157.605 85.1797 158.159 86.3812 159.187 87.2893C160.215 88.1928 161.569 88.6445 163.249 88.6445C165.207 88.6445 166.91 87.918 168.366 86.4604L171.074 89.0962C168.943 91.3548 166.282 92.4864 163.095 92.4864C160.108 92.4864 157.689 91.597 155.833 89.8134C153.976 88.0298 153.046 85.6594 153.046 82.6929M157.638 80.5088H167.762C167.762 79.3772 167.292 78.4039 166.352 77.5889C165.412 76.774 164.286 76.3642 162.983 76.3642C161.578 76.3642 160.364 76.7647 159.331 77.5703C158.303 78.376 157.74 79.3539 157.638 80.5088Z" fill="#FF2A01"/>
<path d="M174.606 92.0347V73.0485H179.081V75.7588C179.533 74.8274 180.268 74.0823 181.282 73.5188C182.296 72.9553 183.483 72.6713 184.837 72.6713C187.093 72.6713 188.856 73.3512 190.122 74.7063C191.387 76.0615 192.02 77.9196 192.02 80.2807V92.0347H187.502V80.9233C187.502 79.6194 187.144 78.5856 186.432 77.8358C185.716 77.0814 184.729 76.7042 183.478 76.7042C182.226 76.7042 181.147 77.114 180.319 77.9289C179.491 78.7439 179.077 79.8057 179.077 81.1143V92.0394H174.601L174.606 92.0347Z" fill="#FF2A01"/>
<path d="M194.239 82.6929V82.5439C194.239 79.5309 195.174 77.1093 197.045 75.2745C198.915 73.4396 201.288 72.5222 204.177 72.5222C207.066 72.5222 209.188 73.4396 210.933 75.2745C212.677 77.1093 213.547 79.3819 213.547 82.0922C213.547 82.6417 213.524 83.1726 213.473 83.6709H198.72C198.794 85.1797 199.348 86.3812 200.376 87.2893C201.404 88.1928 202.758 88.6445 204.438 88.6445C206.396 88.6445 208.099 87.918 209.556 86.4604L212.263 89.0962C210.132 91.3548 207.471 92.4864 204.284 92.4864C201.297 92.4864 198.878 91.597 197.022 89.8134C195.165 88.0298 194.235 85.6594 194.235 82.6929M198.827 80.5088H208.951C208.951 79.3772 208.481 78.4039 207.541 77.5889C206.601 76.774 205.475 76.3642 204.173 76.3642C202.767 76.3642 201.553 76.7647 200.52 77.5703C199.492 78.376 198.929 79.3539 198.827 80.5088Z" fill="#FF2A01"/>
<path d="M232.199 89.6084C230.38 87.7131 229.468 85.3567 229.468 82.5439C229.468 79.7311 230.376 77.3794 232.199 75.4794C234.019 73.584 236.27 72.634 238.955 72.634C240.509 72.634 241.826 72.9274 242.905 73.5188C243.984 74.1102 244.687 74.8693 245.013 75.796V73.0484H249.53V92.0347H245.013V89.2871C244.687 90.2185 243.984 90.9776 242.905 91.5644C241.826 92.1558 240.509 92.4492 238.955 92.4492C236.27 92.4492 234.019 91.5038 232.199 89.6038M235.549 78.3992C234.484 79.5029 233.949 80.886 233.949 82.5439C233.949 84.2018 234.484 85.5802 235.549 86.6886C236.615 87.7922 237.95 88.3464 239.555 88.3464C241.16 88.3464 242.561 87.7922 243.677 86.6886C244.794 85.5849 245.352 84.2018 245.352 82.5439C245.352 80.886 244.794 79.5076 243.677 78.3992C242.561 77.2956 241.188 76.7414 239.555 76.7414C237.922 76.7414 236.615 77.2956 235.549 78.3992Z" fill="#FF2A01"/>
<path d="M254.569 92.0347V77.1558H252.126V73.0531H254.569V65.779H259.087V73.0531H263.19V77.1558H259.087V92.0347H254.569Z" fill="#FF2A01"/>
<path d="M275.101 89.7016C273.095 87.769 272.09 85.3847 272.09 82.5439C272.09 79.7032 273.095 77.3189 275.101 75.3863C277.106 73.4536 279.553 72.485 282.438 72.485C285.322 72.485 287.77 73.4536 289.775 75.3863C291.78 77.3189 292.785 79.7079 292.785 82.5439C292.785 85.38 291.78 87.769 289.775 89.7016C287.77 91.6342 285.322 92.6029 282.438 92.6029C279.553 92.6029 277.106 91.6389 275.101 89.7016ZM278.241 78.3061C277.124 79.4471 276.566 80.8628 276.566 82.5439C276.566 84.2251 277.124 85.6408 278.241 86.7817C279.358 87.9227 280.758 88.4955 282.438 88.4955C284.117 88.4955 285.485 87.9227 286.616 86.7817C287.746 85.6408 288.309 84.2251 288.309 82.5439C288.309 80.8628 287.746 79.4471 286.616 78.3061C285.485 77.1652 284.094 76.5924 282.438 76.5924C280.781 76.5924 279.358 77.1652 278.241 78.3061Z" fill="#FF2A01"/>
<path d="M294.576 92.0347V73.0485H299.052V75.7588C299.503 74.8274 300.238 74.0823 301.253 73.5188C302.267 72.9553 303.453 72.6713 304.807 72.6713C307.064 72.6713 308.827 73.3512 310.092 74.7063C311.358 76.0615 311.991 77.9196 311.991 80.2807V92.0347H307.473V80.9233C307.473 79.6194 307.115 78.5856 306.403 77.8358C305.686 77.0814 304.7 76.7042 303.449 76.7042C302.197 76.7042 301.118 77.114 300.29 77.9289C299.461 78.7439 299.047 79.8057 299.047 81.1143V92.0394H294.572L294.576 92.0347Z" fill="#FF2A01"/>
<path d="M220.266 73.0112H215.79V91.9975H220.266V73.0112Z" fill="#FF2A01"/>
<path d="M224.709 73.0112C221.336 73.0112 220.27 75.8799 220.27 75.8799C220.27 75.8799 221.336 78.7486 224.709 78.7486C228.082 78.7486 229.948 75.8799 229.948 75.8799C229.948 75.8799 228.082 73.0112 224.709 73.0112Z" fill="#FF2A01"/>
<path d="M269.773 73.0531H265.256V92.0394H269.773V73.0531Z" fill="#FF2A01"/>
<path d="M265.712 65.8815C263.748 67.8467 264.795 70.1332 264.795 70.1332C264.795 70.1332 267.084 71.181 269.043 69.2158C271.006 67.2506 270.425 64.4984 270.425 64.4984C270.425 64.4984 267.671 63.9162 265.712 65.8815Z" fill="#FF2A01"/>
<path d="M130.206 121.932C127.522 119.32 126.182 116.092 126.182 112.25C126.182 108.408 127.522 105.177 130.206 102.55C132.891 99.9282 136.166 98.6149 140.028 98.6149C143.889 98.6149 147.174 99.9282 149.868 102.55C152.566 105.172 153.916 108.408 153.916 112.25C153.916 116.092 152.571 119.32 149.891 121.932C147.207 124.545 143.922 125.849 140.032 125.849C136.143 125.849 132.895 124.545 130.211 121.932M130.811 112.25C130.811 114.914 131.695 117.136 133.463 118.919C135.231 120.703 137.422 121.592 140.028 121.592C142.633 121.592 144.825 120.693 146.597 118.9C148.365 117.103 149.249 114.886 149.249 112.25C149.249 109.615 148.365 107.393 146.597 105.582C144.829 103.775 142.638 102.871 140.028 102.871C137.418 102.871 135.231 103.775 133.463 105.582C131.695 107.389 130.811 109.61 130.811 112.25Z" fill="#FF2A01"/>
<path d="M158.647 125.322V110.443H155.563V106.336H158.647V105.395C158.647 103.938 158.81 102.783 159.136 101.931C159.461 101.078 159.987 100.361 160.718 99.7838C161.723 98.9549 163.291 98.5404 165.421 98.5404C166.175 98.5404 166.826 98.5916 167.38 98.6894V102.569C167.027 102.443 166.45 102.382 165.649 102.382C164.798 102.382 164.17 102.592 163.765 103.002C163.365 103.416 163.165 104.101 163.165 105.055V106.336H166.738V110.443H163.165V125.322H158.647Z" fill="#FF2A01"/>
<path d="M171.614 125.322V110.443H168.529V106.336H171.614V105.395C171.614 103.938 171.777 102.783 172.102 101.931C172.428 101.078 172.954 100.361 173.684 99.7838C174.689 98.9549 176.257 98.5404 178.388 98.5404C179.142 98.5404 179.793 98.5916 180.347 98.6894V102.569C179.993 102.443 179.416 102.382 178.616 102.382C177.765 102.382 177.137 102.592 176.732 103.002C176.332 103.416 176.132 104.101 176.132 105.055V106.336H179.705V110.443H176.132V125.322H171.614Z" fill="#FF2A01"/>
<path d="M192.867 122.971C190.871 121.047 189.875 118.658 189.875 115.794C189.875 112.93 190.871 110.541 192.867 108.618C194.863 106.699 197.301 105.735 200.185 105.735C203.219 105.735 205.754 106.83 207.788 109.014L205.001 111.915C203.67 110.532 202.065 109.843 200.185 109.843C198.529 109.843 197.143 110.406 196.026 111.538C194.909 112.67 194.351 114.085 194.351 115.794C194.351 117.503 194.909 118.919 196.026 120.051C197.143 121.182 198.529 121.746 200.185 121.746C202.07 121.746 203.675 121.057 205.001 119.674L207.788 122.575C205.754 124.759 203.223 125.853 200.185 125.853C197.147 125.853 194.863 124.894 192.867 122.971Z" fill="#FF2A01"/>
<path d="M208.644 115.981V115.832C208.644 112.819 209.579 110.397 211.449 108.562C213.319 106.727 215.692 105.81 218.581 105.81C221.471 105.81 223.592 106.727 225.337 108.562C227.082 110.397 227.952 112.67 227.952 115.38C227.952 115.929 227.928 116.46 227.877 116.959H213.124C213.198 118.467 213.752 119.669 214.78 120.577C215.809 121.48 217.162 121.932 218.842 121.932C220.801 121.932 222.504 121.206 223.96 119.748L226.668 122.384C224.537 124.642 221.875 125.774 218.688 125.774C215.702 125.774 213.282 124.885 211.426 123.101C209.569 121.317 208.639 118.947 208.639 115.981M213.231 113.796H223.355C223.355 112.665 222.885 111.692 221.945 110.877C221.005 110.062 219.88 109.652 218.577 109.652C217.172 109.652 215.957 110.052 214.925 110.858C213.896 111.664 213.333 112.642 213.231 113.796Z" fill="#FF2A01"/>
<path d="M187.479 106.341H182.962V125.327H187.479V106.341Z" fill="#FF2A01"/>
<path d="M184.153 99.1691C182.189 101.134 183.236 103.421 183.236 103.421C183.236 103.421 185.525 104.469 187.484 102.503C189.447 100.538 188.866 97.786 188.866 97.786C188.866 97.786 186.111 97.2039 184.153 99.1691Z" fill="#FF2A01"/>
<path d="M45.9905 35.7512C45.9905 35.7512 49.6474 31.1036 46.251 25.5292C42.8547 19.9549 36.2434 19.764 36.2434 19.764C36.2434 19.764 33.3914 25.7342 36.7877 31.3085C40.1841 36.8828 45.9858 35.7558 45.9858 35.7558" fill="#FF2A01"/>
<path d="M75.2131 93.022C75.2131 93.022 71.5562 97.6696 74.9526 103.244C78.349 108.818 84.9602 109.009 84.9602 109.009C84.9602 109.009 87.8122 103.039 84.4159 97.4647C81.0195 91.8903 75.2178 93.022 75.2178 93.022" fill="#FF2A01"/>
<path d="M32.7214 98.7733C29.4088 104.399 33.1401 108.991 33.1401 108.991C33.1401 108.991 38.9604 110.029 42.2731 104.403C45.581 98.7779 42.6406 92.8543 42.6406 92.8543C42.6406 92.8543 36.034 93.1477 32.726 98.7733" fill="#FF2A01"/>
<path d="M11.6221 61.2478C11.6221 61.2478 13.1993 67.6743 19.3593 69.8258C25.5192 71.9773 29.2878 67.4229 29.2878 67.4229C29.2878 67.4229 29.1715 61.5086 23.0115 59.3524C16.8515 57.2009 11.6221 61.2431 11.6221 61.2431" fill="#FF2A01"/>
<path d="M89.6826 65.1876C89.6826 65.1876 90.948 70.9668 97.4104 71.8796C103.868 72.7877 108.214 67.8001 108.214 67.8001C108.214 67.8001 105.413 61.802 98.9551 60.8939C92.4974 59.9811 89.6826 65.1876 89.6826 65.1876Z" fill="#FF2A01"/>
<path d="M16.6654 52.4649C25.682 58.5328 33.6751 52.7815 33.6751 52.7815C33.6751 52.7815 35.9781 43.2022 26.9662 37.1343C17.9495 31.0663 7.81625 35.3786 7.81625 35.3786C7.81625 35.3786 7.64876 46.3969 16.6654 52.4649Z" fill="#FF2A01"/>
<path d="M91.6506 95.3039C101.132 100.613 110.88 95.4855 110.88 95.4855C110.88 95.4855 110.144 84.4905 100.663 79.1816C91.1807 73.8728 83.6854 80.2574 83.6854 80.2574C83.6854 80.2574 82.1733 89.995 91.6552 95.3039" fill="#FF2A01"/>
<path d="M34.3079 80.2574C34.3079 80.2574 26.808 73.8728 17.3308 79.1816C7.84887 84.4905 7.11377 95.4855 7.11377 95.4855C7.11377 95.4855 16.8609 100.613 26.3428 95.3039C35.8247 89.995 34.3126 80.2574 34.3126 80.2574" fill="#FF2A01"/>
<path d="M92.5858 35.7931C83.1039 41.102 84.6159 50.8396 84.6159 50.8396C84.6159 50.8396 92.1159 57.2242 101.593 51.9153C111.075 46.6065 111.81 35.6115 111.81 35.6115C111.81 35.6115 102.063 30.4842 92.5811 35.7931" fill="#FF2A01"/>
<path d="M111.912 74.3012C107.814 73.2999 105.673 76.4713 105.673 76.4713C105.673 76.4713 106.12 80.2713 110.214 81.2726C114.313 82.2738 117.426 79.3399 117.426 79.3399C117.426 79.3399 116.011 75.3024 111.912 74.3012Z" fill="#FF2A01"/>
<path d="M92.1623 102.191C92.1623 102.191 90.6084 105.689 93.6279 108.637C96.6428 111.589 100.816 110.653 100.816 110.653C100.816 110.653 101.654 106.457 98.634 103.509C95.6192 100.557 92.1623 102.191 92.1623 102.191Z" fill="#FF2A01"/>
<path d="M5.83895 58.3373C9.99368 59.0591 11.9198 55.7527 11.9198 55.7527C11.9198 55.7527 11.222 51.9899 7.06722 51.2681C2.9125 50.5462 0 53.6803 0 53.6803C0 53.6803 1.68422 57.6108 5.83895 58.3373Z" fill="#FF2A01"/>
<path d="M30.3905 31.6485C30.3905 31.6485 31.9444 28.1511 28.9249 25.2033C25.9101 22.2508 21.7367 23.1868 21.7367 23.1868C21.7367 23.1868 20.8993 27.3827 23.9188 30.3306C26.9336 33.283 30.3905 31.6485 30.3905 31.6485Z" fill="#FF2A01"/>
<path d="M37.2576 60.1721C37.2576 60.1721 38.2905 64.3214 42.2777 65.6998C46.265 67.0783 48.6936 64.1211 48.6936 64.1211C48.6936 64.1211 48.6052 60.2978 44.618 58.9194C40.6307 57.5409 37.2576 60.1674 37.2576 60.1674" fill="#FF2A01"/>
<path d="M47.9353 44.3199C45.046 41.2417 40.8401 41.9961 40.8401 41.9961C40.8401 41.9961 39.8259 46.1547 42.7151 49.2283C45.6043 52.3065 49.1263 50.821 49.1263 50.821C49.1263 50.821 50.8245 47.3935 47.9353 44.3199Z" fill="#FF2A01"/>
<path d="M72.5333 39.8493C69.0718 43.4444 71.0258 47.5239 71.0258 47.5239C71.0258 47.5239 75.1713 49.3354 78.6328 45.7403C82.0943 42.1451 80.959 37.2135 80.959 37.2135C80.959 37.2135 75.9948 36.2541 72.5286 39.8493" fill="#FF2A01"/>
<path d="M79.3865 82.2552C76.367 79.312 72.9101 80.9513 72.9101 80.9513C72.9101 80.9513 71.3655 84.4486 74.385 87.3964C77.4045 90.3396 81.5778 89.3989 81.5778 89.3989C81.5778 89.3989 82.406 85.203 79.3865 82.2552Z" fill="#FF2A01"/>
<path d="M87.0678 72.2615C87.0678 72.2615 85.4999 68.2798 81.3685 67.4369C77.237 66.5893 75.2131 69.8399 75.2131 69.8399C75.2131 69.8399 75.7994 73.6213 79.9308 74.4642C84.0623 75.3117 87.0632 72.2661 87.0632 72.2661" fill="#FF2A01"/>
<path d="M103.971 56.7725C103.971 56.7725 106.06 59.9765 110.172 59.0451C114.285 58.1137 115.769 54.1041 115.769 54.1041C115.769 54.1041 112.708 51.119 108.591 52.0504C104.478 52.9818 103.966 56.7725 103.966 56.7725" fill="#FF2A01"/>
<path d="M93.0045 31.1502C96.1496 28.3374 95.5029 24.1089 95.5029 24.1089C95.5029 24.1089 91.3761 22.9866 88.231 25.7994C85.0859 28.6121 86.477 32.1747 86.477 32.1747C86.477 32.1747 89.8547 33.9629 92.9998 31.1502" fill="#FF2A01"/>
<path d="M13.7297 73.5001C13.7297 73.5001 11.5895 70.3334 7.49063 71.33C3.39173 72.3313 1.97736 76.3688 1.97736 76.3688C1.97736 76.3688 5.08991 79.298 9.18881 78.3014C13.2877 77.3002 13.7297 73.5001 13.7297 73.5001Z" fill="#FF2A01"/>
<path d="M19.35 103.509C16.3351 106.462 17.1679 110.653 17.1679 110.653C17.1679 110.653 21.3412 111.589 24.3561 108.637C27.3709 105.684 25.8216 102.191 25.8216 102.191C25.8216 102.191 22.3648 100.557 19.35 103.509Z" fill="#FF2A01"/>
<path d="M74.0825 123.516C73.501 119.669 69.2625 92.1791 68.9042 84.267C68.5786 77.0674 68.974 69.0016 73.943 64.4099C77.5487 61.0802 83.5877 55.5897 83.5877 55.5897L80.1355 50.9234L64.6704 64.1444L64.8565 43.7006H55.1699L52.8064 81.5148L34.5638 66.7104L30.3113 71.9168C30.3113 71.9168 38.1602 78.7998 43.8037 84.8631C46.8977 88.1835 48.4284 92.6541 48.005 97.1713C47.0373 107.454 45.246 123.748 45.246 123.748C45.246 123.748 48.3586 127.432 59.6224 127.432C70.8862 127.432 74.0732 123.511 74.0732 123.511" fill="#FF2A01"/>
<path d="M86.6631 12.5271C83.5412 8.61529 73.8732 9.01578 65.908 15.2747C63.4608 5.08534 58.4639 -0.842918 53.709 0.0977801C47.1257 1.40172 48.1167 12.0661 48.8704 16.7928C49.2565 19.2144 49.88 21.5941 50.6756 23.9086C51.4293 26.102 52.3738 28.2256 53.4438 30.2839C54.0626 31.4715 54.6489 32.6776 55.2444 33.8744C57.1287 37.6512 58.8966 40.0495 58.8966 40.0495C58.8966 40.0495 65.4242 37.111 72.5333 32.5425C82.4804 26.1532 91.1202 18.0968 86.6631 12.5224V12.5271Z" fill="#FF2A01"/>
</g>
<defs>
<clipPath id="clip0_218_1609">
<rect width="312" height="127.437" fill="white"/>
</clipPath>
</defs>
</svg>
